<svg width="33" height="29" viewBox="0 0 33 29" fill="none" xmlns="http://www.w3.org/2000/svg">
<path d="M24.0011 16.0027C23.8565 13.732 23.0303 11.5521 21.6243 9.73157C20.2184 7.91107 18.2941 6.52961 16.0888 5.75748C13.8836 4.98536 11.4936 4.85634 9.21369 5.38632C6.93375 5.9163 4.86347 7.08211 3.25808 8.74004C1.65269 10.398 0.582369 12.4755 0.179071 14.7166C-0.224228 16.9577 0.0571252 19.2643 0.988445 21.352C1.91976 23.4398 3.46034 25.2175 5.42024 26.4659C7.38014 27.7144 9.67369 28.379 12.0181 28.3778H19.0011C20.3268 28.3765 21.5978 27.8649 22.5352 26.9553C23.4726 26.0457 23.9998 24.8123 24.0011 23.526V16.0027ZM22.0011 23.526C22.0011 24.298 21.6851 25.0385 21.1224 25.5844C20.5598 26.1304 19.7968 26.4371 19.0011 26.4371H12.0181C10.6071 26.4364 9.21197 26.1472 7.92383 25.5883C6.63568 25.0293 5.4834 24.2132 4.54213 23.1931C3.5963 22.1735 2.88606 20.9695 2.45902 19.6617C2.03199 18.354 1.89803 16.9727 2.06613 15.6106C2.33156 13.4622 3.32632 11.4605 4.89357 9.92128C6.46082 8.38201 8.51143 7.39267 10.7221 7.10921C11.1534 7.05677 11.5875 7.03019 12.0221 7.02964C14.3526 7.02348 16.6109 7.81361 18.4011 9.2615C19.4467 10.1047 20.3048 11.1451 20.9237 12.3197C21.5425 13.4944 21.909 14.7787 22.0011 16.0948V23.526Z" fill="#A2A2C2"/>
<path d="M8.00113 13.8223H12.0011C12.2663 13.8223 12.5207 13.72 12.7082 13.538C12.8958 13.3561 13.0011 13.1092 13.0011 12.8519C13.0011 12.5945 12.8958 12.3477 12.7082 12.1657C12.5207 11.9837 12.2663 11.8815 12.0011 11.8815H8.00113C7.73591 11.8815 7.48156 11.9837 7.29402 12.1657C7.10649 12.3477 7.00113 12.5945 7.00113 12.8519C7.00113 13.1092 7.10649 13.3561 7.29402 13.538C7.48156 13.72 7.73591 13.8223 8.00113 13.8223Z" fill="#A2A2C2"/>
<path d="M16.0011 15.763H8.00113C7.73591 15.763 7.48156 15.8652 7.29402 16.0472C7.10649 16.2292 7.00113 16.476 7.00113 16.7334C7.00113 16.9907 7.10649 17.2375 7.29402 17.4195C7.48156 17.6015 7.73591 17.7037 8.00113 17.7037H16.0011C16.2663 17.7037 16.5207 17.6015 16.7082 17.4195C16.8958 17.2375 17.0011 16.9907 17.0011 16.7334C17.0011 16.476 16.8958 16.2292 16.7082 16.0472C16.5207 15.8652 16.2663 15.763 16.0011 15.763Z" fill="#A2A2C2"/>
<path d="M16.0011 19.6444H8.00113C7.73591 19.6444 7.48156 19.7466 7.29402 19.9286C7.10649 20.1106 7.00113 20.3574 7.00113 20.6148C7.00113 20.8721 7.10649 21.119 7.29402 21.3009C7.48156 21.4829 7.73591 21.5851 8.00113 21.5851H16.0011C16.2663 21.5851 16.5207 21.4829 16.7082 21.3009C16.8958 21.119 17.0011 20.8721 17.0011 20.6148C17.0011 20.3574 16.8958 20.1106 16.7082 19.9286C16.5207 19.7466 16.2663 19.6444 16.0011 19.6444Z" fill="#A2A2C2"/>
<path d="M23.5 18.2037C28.4563 18.2037 32.5 14.3011 32.5 9.45557C32.5 4.61002 28.4563 0.707397 23.5 0.707397C18.5437 0.707397 14.5 4.61002 14.5 9.45557C14.5 14.3011 18.5437 18.2037 23.5 18.2037Z" fill="#FF808B" stroke="#FEFEFE"/>
</svg>
