<svg width="47" height="45" viewBox="0 0 47 45" fill="none" xmlns="http://www.w3.org/2000/svg">
<path d="M2 22.4111H0.5H2ZM10.0625 22.4111L8.5625 22.4111L10.0625 22.4111ZM23.5 35.4505L23.5 36.9505L23.5 35.4505ZM36.9375 22.4111L38.4375 22.4111L36.9375 22.4111ZM23.5 0.0481567C17.4143 0.0481567 11.5692 2.39362 7.25261 6.58229L9.3418 8.73526C13.0893 5.0988 18.1814 3.04816 23.5 3.04816V0.0481567ZM7.25261 6.58229C2.93452 10.7724 0.5 16.4653 0.5 22.4111H3.5C3.5 17.2905 5.59583 12.3702 9.3418 8.73526L7.25261 6.58229ZM0.5 22.4111C0.5 28.357 2.93452 34.0498 7.25261 38.2399L9.3418 36.087C5.59583 32.452 3.5 27.5317 3.5 22.4111H0.5ZM7.25261 38.2399C11.5692 42.4286 17.4143 44.7741 23.5 44.7741V41.7741C18.1814 41.7741 13.0893 39.7234 9.3418 36.087L7.25261 38.2399ZM23.5 44.7741C29.5857 44.7741 35.4308 42.4286 39.7474 38.2399L37.6582 36.087C33.9107 39.7234 28.8186 41.7741 23.5 41.7741V44.7741ZM39.7474 38.2399C44.0655 34.0498 46.5 28.357 46.5 22.4111H43.5C43.5 27.5317 41.4042 32.452 37.6582 36.087L39.7474 38.2399ZM46.5 22.4111C46.5 16.4653 44.0655 10.7724 39.7474 6.58229L37.6582 8.73526C41.4042 12.3702 43.5 17.2905 43.5 22.4111H46.5ZM39.7474 6.58229C35.4308 2.39362 29.5857 0.0481567 23.5 0.0481567V3.04816C28.8186 3.04816 33.9107 5.0988 37.6582 8.73526L39.7474 6.58229ZM23.5 7.87177C19.5526 7.87177 15.7582 9.39296 12.9537 12.1144L15.0428 14.2674C17.2783 12.0981 20.3197 10.8718 23.5 10.8718L23.5 7.87177ZM12.9537 12.1144C10.1476 14.8374 8.5625 18.5402 8.5625 22.4111L11.5625 22.4111C11.5625 19.3655 12.8089 16.4352 15.0428 14.2674L12.9537 12.1144ZM8.5625 22.4111C8.5625 26.282 10.1476 29.9849 12.9537 32.7078L15.0428 30.5548C12.8089 28.3871 11.5625 25.4567 11.5625 22.4111L8.5625 22.4111ZM12.9537 32.7078C15.7582 35.4293 19.5526 36.9505 23.5 36.9505L23.5 33.9505C20.3197 33.9505 17.2783 32.7241 15.0428 30.5548L12.9537 32.7078ZM23.5 36.9505C27.4474 36.9505 31.2418 35.4293 34.0463 32.7078L31.9572 30.5548C29.7217 32.7241 26.6803 33.9505 23.5 33.9505L23.5 36.9505ZM34.0463 32.7078C36.8524 29.9849 38.4375 26.282 38.4375 22.4111L35.4375 22.4111C35.4375 25.4567 34.1911 28.3871 31.9572 30.5548L34.0463 32.7078ZM38.4375 22.4111C38.4375 18.5402 36.8524 14.8374 34.0463 12.1144L31.9572 14.2674C34.1911 16.4352 35.4375 19.3655 35.4375 22.4111L38.4375 22.4111ZM34.0463 12.1144C31.2418 9.39296 27.4474 7.87177 23.5 7.87177L23.5 10.8718C26.6803 10.8718 29.7217 12.0981 31.9572 14.2674L34.0463 12.1144ZM14.5177 10.7948C9.7755 14.4761 7.04698 18.9588 6.55342 24.2271C6.06517 29.4386 7.78592 35.1925 11.4575 41.4274L14.0425 39.9051C10.5474 33.9698 9.13275 28.8576 9.54034 24.5069C9.94261 20.2131 12.1412 16.4375 16.3573 13.1645L14.5177 10.7948ZM32.4823 34.0275C37.218 30.3512 39.9519 25.9176 40.4465 20.6901C40.9355 15.5212 39.2115 9.81256 35.5425 3.58206L32.9575 5.10435C36.4551 11.0439 37.8666 16.1078 37.4598 20.4075C37.0585 24.6486 34.8654 28.3797 30.6427 31.6577L32.4823 34.0275Z" fill="#2F5DF2"/>
</svg>
